<?xml version="1.0" encoding="UTF-8"?>
<svg width="13px" height="9px" viewBox="0 0 13 9" version="1.1" xmlns="http://www.w3.org/2000/svg" xmlns:xlink="http://www.w3.org/1999/xlink">
    <title>新型起重机</title>
    <g id="页面-1" stroke="none" stroke-width="1" fill="none" fill-rule="evenodd">
        <g id="车间看板-2稿" transform="translate(-1664.000000, -835.000000)" fill="#FFFFFF" fill-rule="nonzero">
            <g id="右上备份-4" transform="translate(1567.000000, 627.000000)">
                <g id="编组-20" transform="translate(13.000000, 173.000000)">
                    <g id="编组-19" transform="translate(26.000000, 0.000000)">
                        <g transform="translate(8.000000, 4.000000)" id="编组-16">
                            <g id="编组-15" transform="translate(44.000000, 27.000000)">
                                <g id="新型起重机" transform="translate(6.000000, 4.000000)">
                                    <path d="M0,0.405405405 L13,0.405405405 L13,1.16216216 L0,1.16216216 L0,0.405405405 Z M13,0.324324324 L0,0.324324324 L0,0.243243243 C0.727069351,0 0.159955257,0.189189189 0.727069351,0 L12.2729306,0 L13,0.243243243 L13,0.324324324 Z M2.92281879,8 L1.99217002,8 L1.99217002,7.32432432 L2.92281879,7.32432432 C3.00279642,7.32432432 3.06823266,7.38513514 3.06823266,7.45945946 L3.06823266,7.86486486 C3.06823266,7.93918919 3.00279642,8 2.92281879,8 Z" id="形状"></path>
                                    <path d="M2.75714286,9 L2.2,9 L2,0 L2.92857143,0 L2.75714286,9 L2.75714286,9 Z M2.91428571,0.525236593 L2.01428571,0.525236593 L2.01428571,0.625236593 L2.91428571,0.625236593 L2.91428571,0.525236593 Z M10.0857143,8.58832808 L11,8.58832808 L11,7.8785489 L10.0857143,7.8785489 C10.0071429,7.8785489 9.94285714,7.94242902 9.94285714,8.02050473 L9.94285714,8.44637224 C9.94285714,8.52444795 10.0071429,8.58832808 10.0857143,8.58832808 Z" id="形状"></path>
                                    <path d="M11.0298507,0 L12,0 L11.7910448,9 L11.2089552,9 L11.0298507,0 L11.0298507,0 Z M11.0447761,0.625236593 L11.9850746,0.625236593 L11.9850746,0.525236593 L11.0447761,0.525236593 L11.0447761,0.625236593 Z M9.12686567,1.39116719 C9.0567135,1.39116719 9,1.33722675 9,1.27050473 C9,1.20378272 9.0567135,1.14984227 9.12686567,1.14984227 C9.19701784,1.14984227 9.25373134,1.20378272 9.25373134,1.27050473 C9.25373134,1.33722675 9.19701784,1.39116719 9.12686567,1.39116719 Z M10.0522388,1.39116719 C9.98208664,1.39116719 9.92537313,1.33722675 9.92537313,1.27050473 C9.92537313,1.20378272 9.98208664,1.14984227 10.0522388,1.14984227 C10.122391,1.14984227 10.1791045,1.20378272 10.1791045,1.27050473 C10.1791045,1.33722675 10.122391,1.39116719 10.0522388,1.39116719 Z" id="形状"></path>
                                    <path d="M5.83333333,2 L10,2 L10,2.66666667 L5.83333333,2.66666667 L5.83333333,2 Z M5,2.66666667 L10,2.66666667 L10,4 L5,4 L5,2.66666667 Z" id="形状"></path>
                                    <path d="M9.85744833,2.66666667 L9.3442623,2.66666667 L9.3442623,2 L9.85744833,2 C9.93727169,2 10,2.08628217 10,2.19607843 L10,2.47058824 C10,2.5803845 9.93727169,2.66666667 9.85744833,2.66666667 Z M8,2 L8.1,2 L8.1,3.33333333 L8,3.33333333 L8,2 Z M8.6557377,2 L8.7557377,2 L8.7557377,3.33333333 L8.6557377,3.33333333 L8.6557377,2 Z M8.03278689,3.33333333 L8.68852459,3.33333333 L8.68852459,4 L8.03278689,4 L8.03278689,3.33333333 Z" id="形状"></path>
                                    <path d="M8.80728339,3 L8.80728339,3.47220517 C8.80728339,3.47220517 8.78656692,4.04559717 9.10221505,4.43683971 C9.10221505,4.43683971 9.17462161,4.53802654 9.29366547,4.65271811 C9.29366547,4.65271811 9.46955328,4.85509176 9.3557138,5.15186691 C9.3557138,5.15186691 9.24192485,5.48243688 8.9314811,5.36774531 C8.9314811,5.36774531 8.80728339,5.30028743 8.76069661,5.1450816 C8.76069661,5.1450816 8.71931422,5.07768959 8.69349443,4.9158302 C8.69349443,4.9158302 8.61583297,4.70667124 8.53306818,4.63914748 C8.53306818,4.63914748 8.45545724,4.51101703 8.37264192,4.52452178 C8.37264192,4.52452178 8.30543974,4.57175548 8.34677161,4.65943755 C8.38810348,4.74711962 8.41407485,4.78084856 8.4192287,4.8888207 C8.4192287,4.99000752 8.41407485,5.18559585 8.4864814,5.3879695 C8.4864814,5.3879695 8.61067912,5.80622154 9.00909203,5.96814681 C9.00909203,5.96814681 9.45919505,6.14351095 9.77999703,5.67130578 C9.77999703,5.67130578 10.0283419,5.414979 9.99731776,4.79435331 C9.99731776,4.79435331 9.98180568,4.43683971 9.74376849,4.18723237 C9.74376849,4.18723237 9.4643489,3.97813929 9.38158411,3.72853195 C9.38158411,3.72853195 9.32468963,3.62734513 9.31438193,3.51265355 L9.31438193,3 L8.80728339,3 Z M5.13693628,3.40097352 C5.11744401,3.44864321 5.07065497,3.46451587 5.03555367,3.43271884 C5.00049044,3.40624717 4.98876463,3.34275653 5.01217818,3.29508684 C5.20710081,2.86094111 5.58914154,2.95095513 5.83473643,3.27388882 C6.06864358,3.58100156 6.25968298,3.65509122 6.5091611,3.33215752 C6.84837215,2.89801179 7.32006967,2.89801179 7.65920458,3.33215752 C7.90872077,3.65509122 8.09976017,3.58100156 8.33366732,3.27388882 C8.57922414,2.95095513 8.96130294,2.86094111 9.15622556,3.29508684 C9.17571782,3.34275653 9.16791331,3.40624717 9.13285008,3.43271884 C9.09774878,3.45919051 9.0509978,3.44864321 9.03146747,3.40097352 C8.88721711,3.06744082 8.59875447,3.21567183 8.43889508,3.42217154 C8.14651114,3.80332223 7.86585302,3.87746359 7.55786004,3.48566219 C7.27716385,3.12565781 6.8912399,3.12565781 6.6105437,3.48566219 C6.30255073,3.88273724 6.02185453,3.80864758 5.7294706,3.42217154 C5.5735325,3.21567183 5.28506986,3.07271447 5.13693628,3.40097352 L5.13693628,3.40097352 Z" id="形状"></path>
                                    <path d="M5.06489588,1.99653686 C5.13411806,2.04100789 5.27259896,2.02124376 5.3493135,1.99371046 C5.48965836,1.94289037 5.62439308,1.93300486 5.77223031,1.98524504 C5.90696502,2.03324563 6.09220927,2.03324563 6.22694399,1.98524504 C6.37478122,1.9323017 6.50949766,1.94218032 6.64984252,1.99371046 C6.72657534,2.02124376 6.86503797,2.04100789 6.93427842,1.99653686 C6.94363474,1.99018091 6.96609358,1.98806455 6.98294227,1.99230415 C6.99977269,1.99583371 7.00538283,2.00429913 6.99416255,2.01065509 C6.90059931,2.06854119 6.71721902,2.05653932 6.59933299,2.01348149 C6.4870571,1.97253313 6.39535782,1.9626545 6.27558957,2.00571233 C6.11280415,2.06359843 5.88637015,2.06359843 5.72356646,2.00571233 C5.60381648,1.9626545 5.51213547,1.97253313 5.39984131,2.01348149 C5.28195528,2.05653932 5.09857499,2.06854119 5.00501175,2.01065509 C4.99565543,2.00429913 4.99940161,1.99583371 5.01623203,1.99230415 C5.03308072,1.98806455 5.05552128,1.99018091 5.06489588,1.99653686 L5.06489588,1.99653686 Z" id="路径"></path>
                                    <path d="M4.06572941,2.00346314 C4.05637313,2.00981909 4.03391439,2.01193545 4.01706576,2.00769585 C4.00023541,2.00416629 3.99460702,1.99570087 4.00584553,1.98934491 C4.09940839,1.93145881 4.28278794,1.94346068 4.40067349,1.98651851 C4.51294892,2.02746687 4.60464783,2.0373455 4.72439733,1.99428767 C4.88721863,1.93640157 5.11363344,1.93640157 5.2764182,1.99428767 C5.39618597,2.0373455 5.48788488,2.02746687 5.60016031,1.98651851 C5.71802759,1.94346068 5.90142541,1.93145881 5.99498827,1.98934491 C6.00434456,1.99570087 6.00059839,2.00416629 5.98376804,2.00769585 C5.96691941,2.0112254 5.94447894,2.00981909 5.93510439,2.00346314 C5.86586421,1.95899211 5.72740215,1.97875624 5.65066964,2.00628954 C5.51032535,2.05710963 5.37560945,2.06699514 5.22777282,2.01475496 C5.09303865,1.96675437 4.90779515,1.96675437 4.77306098,2.01475496 C4.62522435,2.0676983 4.49049018,2.05781968 4.35014589,2.00628954 C4.2752956,1.97875624 4.13683353,1.95969526 4.06572941,2.00346314 Z" id="路径"></path>
                                    <path d="M2.06489588,1.99653686 C2.13411806,2.04100789 2.27259896,2.02124376 2.3493135,1.99371046 C2.48965836,1.94289037 2.62439308,1.93300486 2.77223031,1.98524504 C2.90696502,2.03324563 3.09220927,2.03324563 3.22694399,1.98524504 C3.37478122,1.9323017 3.50949766,1.94218032 3.64984252,1.99371046 C3.72657534,2.02124376 3.86503797,2.04100789 3.93427842,1.99653686 C3.94363474,1.99018091 3.96609358,1.98806455 3.98294227,1.99230415 C3.99977269,1.99583371 4.00538283,2.00429913 3.99416255,2.01065509 C3.90059931,2.06854119 3.71721902,2.05653932 3.59933299,2.01348149 C3.4870571,1.97253313 3.39535782,1.9626545 3.27558957,2.00571233 C3.11280415,2.06359843 2.88637015,2.06359843 2.72356646,2.00571233 C2.60381648,1.9626545 2.51213547,1.97253313 2.39984131,2.01348149 C2.28195528,2.05653932 2.09857499,2.06854119 2.00501175,2.01065509 C1.99565543,2.00429913 1.99940161,1.99583371 2.01623203,1.99230415 C2.03308072,1.98806455 2.05552128,1.99018091 2.06489588,1.99653686 L2.06489588,1.99653686 Z" id="路径"></path>
                                    <path d="M1.05267653,2.75666829 C1.04517826,2.78990229 1.02717949,2.80096828 1.01367675,2.77880026 C1.00018866,2.76034494 0.995677986,2.71608099 1.00468469,2.68284699 C1.07966736,2.38017247 1.22663046,2.44292778 1.32110569,2.66806832 C1.41108488,2.88217891 1.48457376,2.93383219 1.58054278,2.70869166 C1.71103019,2.40601713 1.89248239,2.40601713 2.02294051,2.70869166 C2.11892418,2.93383219 2.19241305,2.88217891 2.28239225,2.66806832 C2.37685284,2.44292778 2.52383058,2.38017247 2.59881324,2.68284699 C2.60631151,2.71608099 2.60330927,2.76034494 2.58982118,2.77880026 C2.57631844,2.79725558 2.55833432,2.78990229 2.55082141,2.75666829 C2.49533131,2.52413841 2.38436575,2.62748102 2.32287117,2.77144697 C2.21039718,3.0371748 2.10243385,3.08886412 1.98395538,2.81571091 C1.87597741,2.56472571 1.72752052,2.56472571 1.61954255,2.81571091 C1.50106408,3.09254077 1.39308612,3.04088749 1.28061212,2.77144697 C1.22062598,2.62748102 1.10966043,2.52781506 1.05267653,2.75666829 Z M7.92258253,2.0738213 L8.02258253,2.0738213 L8.02258253,2.59057037 L7.92258253,2.59057037 L7.92258253,2.0738213 Z M7.2777316,2.0738213 L7.3777316,2.0738213 L7.3777316,2.59057037 L7.2777316,2.59057037 L7.2777316,2.0738213 Z M6.73785641,2.03691065 L6.83785641,2.03691065 L6.83785641,2.55365972 L6.73785641,2.55365972 L6.73785641,2.03691065 Z M6.06301241,2.0738213 L6.16301241,2.0738213 L6.16301241,2.59057037 L6.06301241,2.59057037 L6.06301241,2.0738213 Z M5.50814069,2.0738213 L5.60814069,2.0738213 L5.60814069,2.59057037 L5.50814069,2.59057037 L5.50814069,2.0738213 Z M4.86328976,2.0738213 L4.96328976,2.0738213 L4.96328976,2.59057037 L4.86328976,2.59057037 L4.86328976,2.0738213 Z M4.18844576,2.0738213 L4.28844576,2.0738213 L4.28844576,2.59057037 L4.18844576,2.59057037 L4.18844576,2.0738213 Z M3.6635671,2 L3.7635671,2 L3.7635671,2.51674908 L3.6635671,2.51674908 L3.6635671,2 Z M2.97372657,2 L3.07372657,2 L3.07372657,2.51674908 L2.97372657,2.51674908 L2.97372657,2 Z" id="形状"></path>
                                    <path d="M2.90193165,2 L3.00193165,2 L3.00193165,2.7 L2.90193165,2.7 L2.90193165,2 Z M2.05002476,2 L2.15002476,2 L2.15002476,2.7 L2.05002476,2.7 L2.05002476,2 Z M1,2.05 L1.1,2.05 L1.1,3 L1,3 L1,2.05 Z" id="形状"></path>
                                </g>
                            </g>
                        </g>
                    </g>
                </g>
            </g>
        </g>
    </g>
</svg>