<?xml version="1.0" encoding="UTF-8"?>
<svg width="13px" height="10px" viewBox="0 0 13 10" version="1.1" xmlns="http://www.w3.org/2000/svg" xmlns:xlink="http://www.w3.org/1999/xlink">
    <title>集装箱卡车</title>
    <g id="页面-1" stroke="none" stroke-width="1" fill="none" fill-rule="evenodd">
        <g id="车间看板-2稿" transform="translate(-1692.000000, -834.000000)" fill="#FFFFFF" fill-rule="nonzero">
            <g id="右上备份-4" transform="translate(1567.000000, 627.000000)">
                <g id="编组-20" transform="translate(13.000000, 173.000000)">
                    <g id="编组-19" transform="translate(26.000000, 0.000000)">
                        <g transform="translate(8.000000, 4.000000)" id="编组-16">
                            <g id="编组-15备份" transform="translate(72.000000, 27.000000)">
                                <g id="集装箱卡车" transform="translate(6.000000, 3.000000)">
                                    <path d="M10.6111111,6 L8.66666667,6 C8.23711186,6 7.88888889,5.6418278 7.88888889,5.2 L7.88888889,2.8 C7.88888889,2.5790861 8.06300038,2.4 8.27777778,2.4 C8.49255518,2.4 8.66666667,2.5790861 8.66666667,2.8 L8.66666667,5.2 L10.6111111,5.2 C10.8258885,5.2 11,5.3790861 11,5.6 C11,5.8209139 10.8258885,6 10.6111111,6 Z M5.94444444,2.4 C5.72966704,2.4 5.55555556,2.2209139 5.55555556,2 L5.55555556,1.2 C5.55555556,0.9790861 5.38144407,0.8 5.16666667,0.8 L4.38888889,0.8 C4.17411149,0.8 4,0.6209139 4,0.4 C4,0.1790861 4.17411149,0 4.38888889,0 L5.16666667,0 C5.81099887,0 6.33333333,0.5372583 6.33333333,1.2 L6.33333333,2 C6.33333333,2.2209139 6.15922185,2.4 5.94444444,2.4 Z" id="形状"></path>
                                    <path d="M12.723746,5.11907307 L11.7081213,4.77889091 L11.1231215,2.72960083 C10.9801153,2.19377008 10.4990875,1.82097901 9.94905938,1.81971603 L7.71874758,1.81971603 L7.71874758,1.40985802 C7.71874758,1.18349968 7.53686332,1 7.31249771,1 L5.68749822,1 C5.46313261,1 5.28124835,1.18349968 5.28124835,1.40985802 L5.28124835,5.50843818 C5.28124835,5.73479652 5.46313261,5.9182962 5.68749822,5.9182962 C5.91186383,5.9182962 6.09374809,5.73479652 6.09374809,5.50843818 L6.09374809,1.81971603 L6.90624784,1.81971603 L6.90624784,6.73801223 L1.62499949,6.73801223 L1.62499949,6.32815422 C1.62499949,6.10179589 1.44311523,5.9182962 1.21874962,5.9182962 C0.994384009,5.9182962 0.812499746,6.10179589 0.812499746,6.32815422 L0.812499746,6.73801223 C0.363768527,6.73801223 0,7.1050116 0,7.55772827 L0,8.3774443 C0,8.83016097 0.363768527,9.19716033 0.812499746,9.19716033 L1.85249942,9.19716033 C2.14522301,9.69486978 2.67636188,10 3.24999898,10 C3.82363609,10 4.35477495,9.69486978 4.64749854,9.19716033 L8.35249738,9.19716033 C8.64522097,9.69486978 9.17635984,10 9.74999695,10 C10.323634,10 10.8547729,9.69486978 11.1474965,9.19716033 L11.7812463,9.19716033 C12.4543431,9.19716033 13,8.64666128 13,7.96758628 L13,5.50843818 C13.0004468,5.3322337 12.8892163,5.1754581 12.723746,5.11907307 Z M0.812499746,8.3774443 L0.812499746,7.55772827 L1.85249942,7.55772827 C1.70480662,7.80527959 1.62620002,8.08851084 1.62499949,8.3774443 L0.812499746,8.3774443 Z M3.24999898,9.19716033 C2.80126776,9.19716033 2.43749924,8.83016097 2.43749924,8.3774443 C2.43749924,7.92472764 2.80126776,7.55772827 3.24999898,7.55772827 C3.6987302,7.55772827 4.06249873,7.92472764 4.06249873,8.3774443 C4.06249873,8.83016097 3.6987302,9.19716033 3.24999898,9.19716033 Z M9.74999695,9.19716033 C9.30126573,9.19716033 8.9374972,8.83016097 8.9374972,8.3774443 C8.9374972,7.92472764 9.30126573,7.55772827 9.74999695,7.55772827 C10.1987282,7.55772827 10.5624967,7.92472764 10.5624967,8.3774443 C10.5624967,8.83016097 10.1987282,9.19716033 9.74999695,9.19716033 Z M12.1874962,7.96758628 C12.1874962,8.19394462 12.0056119,8.3774443 11.7812463,8.3774443 L11.3749964,8.3774443 C11.3749964,7.47201097 10.6474594,6.73801223 9.74999695,6.73801223 C8.85253451,6.73801223 8.12499746,7.47201097 8.12499746,8.3774443 L4.87499847,8.3774443 C4.87379794,8.08851084 4.79519134,7.80527959 4.64749854,7.55772827 L7.31249771,7.55772827 C7.53686332,7.55772827 7.71874758,7.37422858 7.71874758,7.14787025 L7.71874758,2.63943207 L9.94905938,2.63943207 C10.1367484,2.63243087 10.3047268,2.75614425 10.3553093,2.93862842 L10.9687466,5.20924183 C11.0044582,5.33977004 11.1017671,5.44407905 11.2287465,5.48794528 L12.1712462,5.80353596 L12.1874962,7.96758628 Z" id="形状"></path>
                                </g>
                            </g>
                        </g>
                    </g>
                </g>
            </g>
        </g>
    </g>
</svg>