<?xml version="1.0" encoding="UTF-8"?>
<svg width="9px" height="12px" viewBox="0 0 9 12" version="1.1" xmlns="http://www.w3.org/2000/svg" xmlns:xlink="http://www.w3.org/1999/xlink">
    <title>图形引擎-图标单色_重力行走</title>
    <g id="页面-1" stroke="none" stroke-width="1" fill="none" fill-rule="evenodd">
        <g id="车间看板-2稿" transform="translate(-1721.000000, -833.000000)" fill="#FFFFFF" fill-rule="nonzero">
            <g id="右上备份-4" transform="translate(1567.000000, 627.000000)">
                <g id="编组-20" transform="translate(13.000000, 173.000000)">
                    <g id="编组-19" transform="translate(26.000000, 0.000000)">
                        <g transform="translate(8.000000, 4.000000)" id="编组-16">
                            <g id="编组-15备份-2" transform="translate(100.000000, 27.000000)">
                                <g id="图形引擎-图标单色_重力行走" transform="translate(7.000000, 2.000000)">
                                    <path d="M4,1.5 C3.99993647,2.03587721 4.28582095,2.53107535 4.74994866,2.79903229 C5.21407637,3.06698924 5.78592363,3.06698924 6.25005134,2.79903229 C6.71417905,2.53107535 7.00006353,2.03587721 7,1.5 C7.00006353,0.964122795 6.71417905,0.468924653 6.25005134,0.200967709 C5.78592363,-0.0669892362 5.21407637,-0.0669892362 4.74994866,0.200967709 C4.28582095,0.468924653 3.99993647,0.964122795 4,1.5 L4,1.5 Z" id="路径"></path>
                                    <path d="M3.60411531,2.07513725 L1.3947559,3.54587123 C1.14684702,3.71127954 1,3.97727975 1,4.26056526 L1,5.38281208 C1.00274699,5.5294392 1.07527616,5.66742752 1.19811585,5.75973175 C1.32095554,5.85203598 1.48152002,5.88919894 1.63670304,5.8612436 C1.86656265,5.80850788 2.02564997,5.61419155 2.01872484,5.3946252 L2.01872484,4.80396899 C2.01872484,4.58542619 2.01872484,4.30781776 2.20973573,4.21331276 L3.54681204,3.58721717 C3.583671,3.56355306 3.63287297,3.56502 3.66801789,3.59083088 C3.70316282,3.61664177 3.7159916,3.660731 3.69962076,3.69944186 L2.07602811,10.3856703 C2.02598425,10.552377 2.0756122,10.7311876 2.20621758,10.8547458 C2.33682296,10.9783041 2.52856372,11.0278386 2.70921296,10.9846902 C2.88986219,10.9415418 3.031975,10.8122657 3.08201885,10.645559 L4.35542484,6.23926359 C4.36681957,6.19635405 4.40094112,6.16175813 4.44600368,6.14742546 C4.49106624,6.13309279 4.54089203,6.14098831 4.57827088,6.16838484 L5.71160223,6.91851823 C5.86163571,7.02239371 5.95478638,7.18225952 5.96628343,7.35560385 C5.96628343,7.86947475 6.01721967,8.90312314 6.01721967,8.90312314 C6.32283711,9.44062029 7.05504556,9.14529219 7.02321041,8.90312314 L7.02321041,7.07208886 C7.02321041,7.00711667 6.9786412,6.82401326 6.93407198,6.67634919 C6.90060942,6.55601268 6.82708401,6.44853341 6.72395999,6.36920797 L5.8325758,5.66632705 C5.693551,5.4540599 5.64156629,5.20245048 5.68613411,4.9575396 L5.83894283,4.19559307 L6.57751832,4.8157821 C6.70182508,4.92156668 6.85673187,4.99136568 7.02321041,5.01660521 L8.29661641,5.22924145 C8.54969429,5.26375606 8.8004666,5.15441701 8.9333194,4.95163304 C9.01140397,4.83349822 9.02153917,4.68720639 8.96039862,4.56077066 C8.89925806,4.43433493 8.77473649,4.34408122 8.62770197,4.31963087 L7.50710468,4.1306209 C7.34750927,4.10580998 7.20408527,4.02555671 7.1059818,3.90617152 L6.12545918,2.72485909 C6.04151876,2.627796 5.92855851,2.55588067 5.80074066,2.51812941 L4.03070631,2.02788475 C3.88872319,1.97806717 3.72946288,1.99570807 3.60411531,2.07513725 Z" id="路径"></path>
                                    <path d="M5.17067307,11.9999382 L0,11.9999382 L0,11.3826619 L4.90564903,11.3826619 L4.90564903,9.53083291 C4.90564903,9.44897698 4.93414097,9.37047366 4.98485694,9.31259277 C5.03557291,9.25471189 5.10435853,9.22219475 5.17608174,9.22219476 L6.74459135,9.22219476 L6.74459135,7.30863815 C6.74746882,7.13956096 6.86687644,7.00328398 7.01502404,7 L9,7 L9,7.61727633 L7.28545673,7.61727633 L7.28545673,9.53083291 C7.28545673,9.70128906 7.16437989,9.83947107 7.01502404,9.83947107 L5.44651442,9.83947107 L5.44651442,11.6913 C5.44652896,11.7742368 5.41729577,11.8536903 5.36540393,11.9117519 C5.31351209,11.9698135 5.24332877,12.0015969 5.17067307,11.9999382 Z" id="路径"></path>
                                </g>
                            </g>
                        </g>
                    </g>
                </g>
            </g>
        </g>
    </g>
</svg>