<?xml version="1.0" encoding="UTF-8"?>
<svg width="798px" height="410px" viewBox="0 0 798 410" version="1.1" xmlns="http://www.w3.org/2000/svg" xmlns:xlink="http://www.w3.org/1999/xlink">
    <title>编组 25</title>
    <g id="页面-1" stroke="none" stroke-width="1" fill="none" fill-rule="evenodd">
        <g id="综合看板" transform="translate(-849.000000, -1041.000000)">
            <g id="编组-17" transform="translate(643.000000, 998.000000)">
                <g id="编组-25" transform="translate(206.000000, 43.660905)">
                    <path d="M688,-1.62092562e-14 C688.163106,-1.60982339e-14 688.323737,0.0398967339 688.467888,0.116212084 L699.330623,5.86707184 C699.818725,6.1254791 700.00493,6.73064489 699.746523,7.21874748 C699.652716,7.39593827 699.507814,7.54084079 699.330623,7.63464768 L688.467888,13.3855074 C687.979785,13.6439147 687.374619,13.4577098 687.116212,12.9696072 C687.039897,12.825456 687,12.6648256 687,12.5017195 L687,6.97 L0,6.970674 L0,5.970674 L687,5.97 L687,1 C687,0.44771525 687.447715,-1.60982339e-14 688,-1.62092562e-14 Z" id="形状结合" fill="#5DCA8E"></path>
                    <g id="编组-12" transform="translate(24.764706, 35.339095)">
                        <path d="M5.87415728,63.5734831 L9.17464282,69.5143571 C9.442856,69.9971408 9.2689122,70.6059441 8.78612847,70.8741573 C8.63757047,70.9566895 8.47042979,71 8.30048554,71 L1.69951446,71 C1.14722971,71 0.69951446,70.5522847 0.69951446,70 C0.69951446,69.8300558 0.742824961,69.6629151 0.825357184,69.5143571 L4.12584272,63.5734831 C4.39405591,63.0906994 5.0028592,62.9167556 5.48564293,63.1849688 C5.648883,63.2756577 5.78346835,63.410243 5.87415728,63.5734831 Z" id="三角形" fill="#FFA700" transform="translate(5.000000, 66.500000) rotate(-180.000000) translate(-5.000000, -66.500000) "></path>
                        <path d="M5.23529412,64 L5.23529412,16 L158.235294,16 L158.235294,0" id="路径-7" stroke="#FFA700"></path>
                    </g>
                    <g id="编组-12备份" transform="translate(84.764706, 41.339095)">
                        <path d="M5.87415728,57.5734831 L9.17464282,63.5143571 C9.442856,63.9971408 9.2689122,64.6059441 8.78612847,64.8741573 C8.63757047,64.9566895 8.47042979,65 8.30048554,65 L1.69951446,65 C1.14722971,65 0.69951446,64.5522847 0.69951446,64 C0.69951446,63.8300558 0.742824961,63.6629151 0.825357184,63.5143571 L4.12584272,57.5734831 C4.39405591,57.0906994 5.0028592,56.9167556 5.48564293,57.1849688 C5.648883,57.2756577 5.78346835,57.410243 5.87415728,57.5734831 Z" id="三角形" fill="#FFA700" transform="translate(5.000000, 60.500000) rotate(-180.000000) translate(-5.000000, -60.500000) "></path>
                        <path d="M61.8741573,57.5734831 L65.1746428,63.5143571 C65.442856,63.9971408 65.2689122,64.6059441 64.7861285,64.8741573 C64.6375705,64.9566895 64.4704298,65 64.3004855,65 L57.6995145,65 C57.1472297,65 56.6995145,64.5522847 56.6995145,64 C56.6995145,63.8300558 56.742825,63.6629151 56.8253572,63.5143571 L60.1258427,57.5734831 C60.3940559,57.0906994 61.0028592,56.9167556 61.4856429,57.1849688 C61.648883,57.2756577 61.7834684,57.410243 61.8741573,57.5734831 Z" id="三角形备份-4" fill="#FFA700" transform="translate(61.000000, 60.500000) rotate(-180.000000) translate(-61.000000, -60.500000) "></path>
                        <line x1="5.23529412" y1="56" x2="5.23529412" y2="0" id="路径-7" stroke="#FFA700"></line>
                        <polyline id="路径-2" stroke="#FFA700" points="61.2352941 58 61.2352941 33.5 5.23529412 33.5"></polyline>
                    </g>
                    <g id="编组-12备份-7" transform="translate(518.764706, 35.339095)">
                        <path d="M5.87415728,63.5734831 L9.17464282,69.5143571 C9.442856,69.9971408 9.2689122,70.6059441 8.78612847,70.8741573 C8.63757047,70.9566895 8.47042979,71 8.30048554,71 L1.69951446,71 C1.14722971,71 0.69951446,70.5522847 0.69951446,70 C0.69951446,69.8300558 0.742824961,69.6629151 0.825357184,69.5143571 L4.12584272,63.5734831 C4.39405591,63.0906994 5.0028592,62.9167556 5.48564293,63.1849688 C5.648883,63.2756577 5.78346835,63.410243 5.87415728,63.5734831 Z" id="三角形" fill="#FFA700" transform="translate(5.000000, 66.500000) rotate(-180.000000) translate(-5.000000, -66.500000) "></path>
                        <path d="M61.8741573,63.5734831 L65.1746428,69.5143571 C65.442856,69.9971408 65.2689122,70.6059441 64.7861285,70.8741573 C64.6375705,70.9566895 64.4704298,71 64.3004855,71 L57.6995145,71 C57.1472297,71 56.6995145,70.5522847 56.6995145,70 C56.6995145,69.8300558 56.742825,69.6629151 56.8253572,69.5143571 L60.1258427,63.5734831 C60.3940559,63.0906994 61.0028592,62.9167556 61.4856429,63.1849688 C61.648883,63.2756577 61.7834684,63.410243 61.8741573,63.5734831 Z" id="三角形备份-4" fill="#FFA700" transform="translate(61.000000, 66.500000) rotate(-180.000000) translate(-61.000000, -66.500000) "></path>
                        <line x1="5.23529412" y1="63" x2="5.23529412" y2="0" id="路径-7" stroke="#FFA700"></line>
                        <polyline id="路径-2" stroke="#FFA700" points="61.2352941 63 61.2352941 39.5 5.23529412 39.5"></polyline>
                        <path d="M109.874157,63.5734831 L113.174643,69.5143571 C113.442856,69.9971408 113.268912,70.6059441 112.786128,70.8741573 C112.63757,70.9566895 112.47043,71 112.300486,71 L105.699514,71 C105.14723,71 104.699514,70.5522847 104.699514,70 C104.699514,69.8300558 104.742825,69.6629151 104.825357,69.5143571 L108.125843,63.5734831 C108.394056,63.0906994 109.002859,62.9167556 109.485643,63.1849688 C109.648883,63.2756577 109.783468,63.410243 109.874157,63.5734831 Z" id="三角形备份-5" fill="#FFA700" transform="translate(109.000000, 66.500000) rotate(-180.000000) translate(-109.000000, -66.500000) "></path>
                        <polyline id="路径-2备份" stroke="#FFA700" points="109.235294 63 109.235294 39.5 53.2352941 39.5"></polyline>
                    </g>
                    <g id="编组-12备份-2" transform="translate(220.764706, 70.839095) scale(-1, 1) translate(-220.764706, -70.839095) translate(193.764706, 35.339095)">
                        <path d="M5.87415728,63.5734831 L9.17464282,69.5143571 C9.442856,69.9971408 9.2689122,70.6059441 8.78612847,70.8741573 C8.63757047,70.9566895 8.47042979,71 8.30048554,71 L1.69951446,71 C1.14722971,71 0.69951446,70.5522847 0.69951446,70 C0.69951446,69.8300558 0.742824961,69.6629151 0.825357184,69.5143571 L4.12584272,63.5734831 C4.39405591,63.0906994 5.0028592,62.9167556 5.48564293,63.1849688 C5.648883,63.2756577 5.78346835,63.410243 5.87415728,63.5734831 Z" id="三角形" fill="#FFA700" transform="translate(5.000000, 66.500000) rotate(-180.000000) translate(-5.000000, -66.500000) "></path>
                        <path d="M49.8741573,63.5734831 L53.1746428,69.5143571 C53.442856,69.9971408 53.2689122,70.6059441 52.7861285,70.8741573 C52.6375705,70.9566895 52.4704298,71 52.3004855,71 L45.6995145,71 C45.1472297,71 44.6995145,70.5522847 44.6995145,70 C44.6995145,69.8300558 44.742825,69.6629151 44.8253572,69.5143571 L48.1258427,63.5734831 C48.3940559,63.0906994 49.0028592,62.9167556 49.4856429,63.1849688 C49.648883,63.2756577 49.7834684,63.410243 49.8741573,63.5734831 Z" id="三角形备份-4" fill="#FFA700" transform="translate(49.000000, 66.500000) rotate(-180.000000) translate(-49.000000, -66.500000) "></path>
                        <line x1="4.76470588" y1="64" x2="4.5" y2="0" id="路径-7" stroke="#FFA700"></line>
                        <polyline id="路径-2" stroke="#FFA700" points="48.7647059 64 48.7647059 39.5 4.26470588 39.5"></polyline>
                    </g>
                    <g id="编组-12备份-3" transform="translate(297.000000, 70.339095) scale(-1, 1) translate(-297.000000, -70.339095) translate(292.000000, 34.339095)">
                        <path d="M5.87415728,64.5734831 L9.17464282,70.5143571 C9.442856,70.9971408 9.2689122,71.6059441 8.78612847,71.8741573 C8.63757047,71.9566895 8.47042979,72 8.30048554,72 L1.69951446,72 C1.14722971,72 0.69951446,71.5522847 0.69951446,71 C0.69951446,70.8300558 0.742824961,70.6629151 0.825357184,70.5143571 L4.12584272,64.5734831 C4.39405591,64.0906994 5.0028592,63.9167556 5.48564293,64.1849688 C5.648883,64.2756577 5.78346835,64.410243 5.87415728,64.5734831 Z" id="三角形" fill="#FFA700" transform="translate(5.000000, 67.500000) rotate(-180.000000) translate(-5.000000, -67.500000) "></path>
                        <line x1="5" y1="65" x2="5.23529412" y2="0" id="路径-7" stroke="#FFA700"></line>
                    </g>
                    <g id="编组-12备份-4" transform="translate(350.000000, 70.339095) scale(-1, 1) translate(-350.000000, -70.339095) translate(345.000000, 34.339095)">
                        <path d="M5.87415728,64.5734831 L9.17464282,70.5143571 C9.442856,70.9971408 9.2689122,71.6059441 8.78612847,71.8741573 C8.63757047,71.9566895 8.47042979,72 8.30048554,72 L1.69951446,72 C1.14722971,72 0.69951446,71.5522847 0.69951446,71 C0.69951446,70.8300558 0.742824961,70.6629151 0.825357184,70.5143571 L4.12584272,64.5734831 C4.39405591,64.0906994 5.0028592,63.9167556 5.48564293,64.1849688 C5.648883,64.2756577 5.78346835,64.410243 5.87415728,64.5734831 Z" id="三角形" fill="#FFA700" transform="translate(5.000000, 67.500000) rotate(-180.000000) translate(-5.000000, -67.500000) "></path>
                        <line x1="5" y1="65" x2="5.23529412" y2="0" id="路径-7" stroke="#FFA700"></line>
                    </g>
                    <g id="编组-12备份-5" transform="translate(406.000000, 70.339095) scale(-1, 1) translate(-406.000000, -70.339095) translate(401.000000, 34.339095)">
                        <path d="M5.87415728,64.5734831 L9.17464282,70.5143571 C9.442856,70.9971408 9.2689122,71.6059441 8.78612847,71.8741573 C8.63757047,71.9566895 8.47042979,72 8.30048554,72 L1.69951446,72 C1.14722971,72 0.69951446,71.5522847 0.69951446,71 C0.69951446,70.8300558 0.742824961,70.6629151 0.825357184,70.5143571 L4.12584272,64.5734831 C4.39405591,64.0906994 5.0028592,63.9167556 5.48564293,64.1849688 C5.648883,64.2756577 5.78346835,64.410243 5.87415728,64.5734831 Z" id="三角形" fill="#FFA700" transform="translate(5.000000, 67.500000) rotate(-180.000000) translate(-5.000000, -67.500000) "></path>
                        <line x1="5" y1="64" x2="5.23529412" y2="0" id="路径-7" stroke="#FFA700"></line>
                    </g>
                    <g id="编组-12备份-6" transform="translate(460.000000, 70.339095) scale(-1, 1) translate(-460.000000, -70.339095) translate(455.000000, 34.339095)">
                        <path d="M5.87415728,64.5734831 L9.17464282,70.5143571 C9.442856,70.9971408 9.2689122,71.6059441 8.78612847,71.8741573 C8.63757047,71.9566895 8.47042979,72 8.30048554,72 L1.69951446,72 C1.14722971,72 0.69951446,71.5522847 0.69951446,71 C0.69951446,70.8300558 0.742824961,70.6629151 0.825357184,70.5143571 L4.12584272,64.5734831 C4.39405591,64.0906994 5.0028592,63.9167556 5.48564293,64.1849688 C5.648883,64.2756577 5.78346835,64.410243 5.87415728,64.5734831 Z" id="三角形" fill="#FFA700" transform="translate(5.000000, 67.500000) rotate(-180.000000) translate(-5.000000, -67.500000) "></path>
                        <line x1="5" y1="65" x2="5.23529412" y2="0" id="路径-7" stroke="#FFA700"></line>
                    </g>
                    <path d="M784.5,310.505762 C784.664141,310.505762 784.825758,310.546166 784.970588,310.623409 L796.845588,316.956742 C797.332898,317.216641 797.517252,317.822373 797.257353,318.309683 C797.163985,318.484747 797.020652,318.628081 796.845588,318.721448 L784.970588,325.054781 C784.483278,325.31468 783.877546,325.130327 783.617647,324.643017 C783.540404,324.498186 783.5,324.336569 783.5,324.172428 L783.5,318.338762 L155,318.339095 L155,317.339095 L783.5,317.338762 L783.5,311.505762 C783.5,310.953477 783.947715,310.505762 784.5,310.505762 Z" id="形状结合" fill="#34C7FF"></path>
                    <g id="编组-12备份-5" transform="translate(28.764706, 281.698692) scale(-1, 1) translate(-28.764706, -281.698692) translate(23.764706, 169.822995)">
                        <path d="M5.87415728,216.324878 L9.17464282,222.265752 C9.442856,222.748535 9.2689122,223.357339 8.78612847,223.625552 C8.63757047,223.708084 8.47042979,223.751395 8.30048554,223.751395 L1.69951446,223.751395 C1.14722971,223.751395 0.69951446,223.303679 0.69951446,222.751395 C0.69951446,222.58145 0.742824961,222.41431 0.825357184,222.265752 L4.12584272,216.324878 C4.39405591,215.842094 5.0028592,215.66815 5.48564293,215.936363 C5.648883,216.027052 5.78346835,216.161638 5.87415728,216.324878 Z" id="三角形" fill="#34C7FF" transform="translate(5.000000, 219.251395) rotate(-180.000000) translate(-5.000000, -219.251395) "></path>
                        <line x1="4.76470588" y1="215.150328" x2="4.76470588" y2="0.64604002" id="路径-7" stroke="#34C7FF"></line>
                    </g>
                    <g id="编组-12备份-8" transform="translate(89.764706, 276.456742) scale(-1, 1) translate(-89.764706, -276.456742) translate(84.764706, 159.339095)">
                        <path d="M5.87415728,226.808777 L9.17464282,232.749651 C9.442856,233.232435 9.2689122,233.841238 8.78612847,234.109451 C8.63757047,234.191984 8.47042979,234.235294 8.30048554,234.235294 L1.69951446,234.235294 C1.14722971,234.235294 0.69951446,233.787579 0.69951446,233.235294 C0.69951446,233.06535 0.742824961,232.898209 0.825357184,232.749651 L4.12584272,226.808777 C4.39405591,226.325993 5.0028592,226.15205 5.48564293,226.420263 C5.648883,226.510952 5.78346835,226.645537 5.87415728,226.808777 Z" id="三角形" fill="#34C7FF" transform="translate(5.000000, 229.735294) rotate(-180.000000) translate(-5.000000, -229.735294) "></path>
                        <line x1="4.76470588" y1="225.634227" x2="4.76470588" y2="0" id="路径-7" stroke="#34C7FF"></line>
                    </g>
                    <g id="编组-12备份-9" transform="translate(145.764706, 230.839095) scale(-1, 1) translate(-145.764706, -230.839095) translate(140.764706, 159.339095)">
                        <path d="M5.87415728,135.573483 L9.17464282,141.514357 C9.442856,141.997141 9.2689122,142.605944 8.78612847,142.874157 C8.63757047,142.956689 8.47042979,143 8.30048554,143 L1.69951446,143 C1.14722971,143 0.69951446,142.552285 0.69951446,142 C0.69951446,141.830056 0.742824961,141.662915 0.825357184,141.514357 L4.12584272,135.573483 C4.39405591,135.090699 5.0028592,134.916756 5.48564293,135.184969 C5.648883,135.275658 5.78346835,135.410243 5.87415728,135.573483 Z" id="三角形" fill="#34C7FF" transform="translate(5.000000, 138.500000) rotate(-180.000000) translate(-5.000000, -138.500000) "></path>
                        <line x1="4.76470588" y1="137" x2="4.76470588" y2="0" id="路径-7" stroke="#34C7FF"></line>
                    </g>
                    <g id="编组-12备份-11" transform="translate(293.764706, 236.339095) scale(-1, 1) translate(-293.764706, -236.339095) translate(288.764706, 170.339095)">
                        <path d="M5.87415728,124.573483 L9.17464282,130.514357 C9.442856,130.997141 9.2689122,131.605944 8.78612847,131.874157 C8.63757047,131.956689 8.47042979,132 8.30048554,132 L1.69951446,132 C1.14722971,132 0.69951446,131.552285 0.69951446,131 C0.69951446,130.830056 0.742824961,130.662915 0.825357184,130.514357 L4.12584272,124.573483 C4.39405591,124.090699 5.0028592,123.916756 5.48564293,124.184969 C5.648883,124.275658 5.78346835,124.410243 5.87415728,124.573483 Z" id="三角形" fill="#34C7FF" transform="translate(5.000000, 127.500000) rotate(-180.000000) translate(-5.000000, -127.500000) "></path>
                        <line x1="4.76470588" y1="126" x2="4.76470588" y2="0" id="路径-7" stroke="#34C7FF"></line>
                    </g>
                    <g id="编组-12备份-14" transform="translate(527.000000, 230.839095) scale(-1, 1) translate(-527.000000, -230.839095) translate(522.000000, 157.339095)">
                        <path d="M5.87415728,139.573483 L9.17464282,145.514357 C9.442856,145.997141 9.2689122,146.605944 8.78612847,146.874157 C8.63757047,146.956689 8.47042979,147 8.30048554,147 L1.69951446,147 C1.14722971,147 0.69951446,146.552285 0.69951446,146 C0.69951446,145.830056 0.742824961,145.662915 0.825357184,145.514357 L4.12584272,139.573483 C4.39405591,139.090699 5.0028592,138.916756 5.48564293,139.184969 C5.648883,139.275658 5.78346835,139.410243 5.87415728,139.573483 Z" id="三角形" fill="#34C7FF" transform="translate(5.000000, 142.500000) rotate(-180.000000) translate(-5.000000, -142.500000) "></path>
                        <line x1="4.76470588" y1="139.93985" x2="4.76470588" y2="0" id="路径-7" stroke="#34C7FF"></line>
                    </g>
                    <g id="编组-12备份-15" transform="translate(582.000000, 230.839095) scale(-1, 1) translate(-582.000000, -230.839095) translate(577.000000, 157.339095)">
                        <path d="M5.87415728,139.573483 L9.17464282,145.514357 C9.442856,145.997141 9.2689122,146.605944 8.78612847,146.874157 C8.63757047,146.956689 8.47042979,147 8.30048554,147 L1.69951446,147 C1.14722971,147 0.69951446,146.552285 0.69951446,146 C0.69951446,145.830056 0.742824961,145.662915 0.825357184,145.514357 L4.12584272,139.573483 C4.39405591,139.090699 5.0028592,138.916756 5.48564293,139.184969 C5.648883,139.275658 5.78346835,139.410243 5.87415728,139.573483 Z" id="三角形" fill="#34C7FF" transform="translate(5.000000, 142.500000) rotate(-180.000000) translate(-5.000000, -142.500000) "></path>
                        <line x1="4.76470588" y1="137.819549" x2="4.76470588" y2="0" id="路径-7" stroke="#34C7FF"></line>
                    </g>
                    <g id="编组-12备份-16" transform="translate(628.000000, 230.839095) scale(-1, 1) translate(-628.000000, -230.839095) translate(623.000000, 157.339095)">
                        <path d="M5.87415728,139.573483 L9.17464282,145.514357 C9.442856,145.997141 9.2689122,146.605944 8.78612847,146.874157 C8.63757047,146.956689 8.47042979,147 8.30048554,147 L1.69951446,147 C1.14722971,147 0.69951446,146.552285 0.69951446,146 C0.69951446,145.830056 0.742824961,145.662915 0.825357184,145.514357 L4.12584272,139.573483 C4.39405591,139.090699 5.0028592,138.916756 5.48564293,139.184969 C5.648883,139.275658 5.78346835,139.410243 5.87415728,139.573483 Z" id="三角形" fill="#34C7FF" transform="translate(5.000000, 142.500000) rotate(-180.000000) translate(-5.000000, -142.500000) "></path>
                        <line x1="4.76470588" y1="141" x2="4.76470588" y2="0" id="路径-7" stroke="#34C7FF"></line>
                    </g>
                    <g id="编组-12备份-18" transform="translate(659.382353, 167.456742) scale(-1, 1) translate(-659.382353, -167.456742) translate(643.000000, 120.339095)">
                        <path d="M5.87415728,86.8087772 L9.17464282,92.7496512 C9.442856,93.2324349 9.2689122,93.8412382 8.78612847,94.1094514 C8.63757047,94.1919836 8.47042979,94.2352941 8.30048554,94.2352941 L1.69951446,94.2352941 C1.14722971,94.2352941 0.69951446,93.7875789 0.69951446,93.2352941 C0.69951446,93.0653499 0.742824961,92.8982092 0.825357184,92.7496512 L4.12584272,86.8087772 C4.39405591,86.3259935 5.0028592,86.1520497 5.48564293,86.4202629 C5.648883,86.5109518 5.78346835,86.6455371 5.87415728,86.8087772 Z" id="三角形" fill="#34C7FF" transform="translate(5.000000, 89.735294) rotate(-180.000000) translate(-5.000000, -89.735294) "></path>
                        <path d="M4.76470588,87.5 L4.76470588,0 L32.7647059,0" id="路径-7" stroke="#34C7FF"></path>
                    </g>
                    <g id="编组-12备份-12" transform="translate(351.764706, 236.839095) scale(-1, 1) translate(-351.764706, -236.839095) translate(346.764706, 171.339095)">
                        <path d="M5.87415728,123.573483 L9.17464282,129.514357 C9.442856,129.997141 9.2689122,130.605944 8.78612847,130.874157 C8.63757047,130.956689 8.47042979,131 8.30048554,131 L1.69951446,131 C1.14722971,131 0.69951446,130.552285 0.69951446,130 C0.69951446,129.830056 0.742824961,129.662915 0.825357184,129.514357 L4.12584272,123.573483 C4.39405591,123.090699 5.0028592,122.916756 5.48564293,123.184969 C5.648883,123.275658 5.78346835,123.410243 5.87415728,123.573483 Z" id="三角形" fill="#34C7FF" transform="translate(5.000000, 126.500000) rotate(-180.000000) translate(-5.000000, -126.500000) "></path>
                        <line x1="4.76470588" y1="44" x2="4.76470588" y2="0" id="路径-7" stroke="#34C7FF"></line>
                        <line x1="4.76470588" y1="123" x2="4.76470588" y2="97" id="路径-7备份-2" stroke="#34C7FF"></line>
                    </g>
                    <g id="编组-12备份-10" transform="translate(220.250000, 230.839095) scale(-1, 1) translate(-220.250000, -230.839095) translate(197.000000, 159.339095)">
                        <path d="M22.8741573,135.573483 L26.1746428,141.514357 C26.442856,141.997141 26.2689122,142.605944 25.7861285,142.874157 C25.6375705,142.956689 25.4704298,143 25.3004855,143 L18.6995145,143 C18.1472297,143 17.6995145,142.552285 17.6995145,142 C17.6995145,141.830056 17.742825,141.662915 17.8253572,141.514357 L21.1258427,135.573483 C21.3940559,135.090699 22.0028592,134.916756 22.4856429,135.184969 C22.648883,135.275658 22.7834684,135.410243 22.8741573,135.573483 Z" id="三角形" fill="#34C7FF" transform="translate(22.000000, 138.500000) rotate(-180.000000) translate(-22.000000, -138.500000) "></path>
                        <line x1="21.5" y1="136" x2="21.5" y2="84" id="路径-7" stroke="#34C7FF"></line>
                        <path d="M0,10.5 L0,84 L46.5,84 L46.5,0" id="路径-7备份" stroke="#34C7FF"></path>
                    </g>
                    <g id="编组-12备份-13" transform="translate(436.882353, 198.956742) scale(-1, 1) translate(-436.882353, -198.956742) translate(408.000000, 159.339095)">
                        <path d="M5.87415728,71.8087772 L9.17464282,77.7496512 C9.442856,78.2324349 9.2689122,78.8412382 8.78612847,79.1094514 C8.63757047,79.1919836 8.47042979,79.2352941 8.30048554,79.2352941 L1.69951446,79.2352941 C1.14722971,79.2352941 0.69951446,78.7875789 0.69951446,78.2352941 C0.69951446,78.0653499 0.742824961,77.8982092 0.825357184,77.7496512 L4.12584272,71.8087772 C4.39405591,71.3259935 5.0028592,71.1520497 5.48564293,71.4202629 C5.648883,71.5109518 5.78346835,71.6455371 5.87415728,71.8087772 Z" id="三角形" fill="#34C7FF" transform="translate(5.000000, 74.735294) rotate(-180.000000) translate(-5.000000, -74.735294) "></path>
                        <line x1="4.76470588" y1="72" x2="4.29411765" y2="23.5" id="路径-7" stroke="#34C7FF"></line>
                        <path d="M4.26470588,11 L4.26470588,45.5 L57.7647059,45.5 L57.7647059,0" id="路径-7备份" stroke="#34C7FF"></path>
                    </g>
                    <polyline id="路径-8" stroke="#34C7FF" points="35 408.339095 294 408.339095 294 355.339095"></polyline>
                </g>
            </g>
        </g>
    </g>
</svg>